<svg width="53" height="53" viewBox="0 0 53 53" fill="none" xmlns="http://www.w3.org/2000/svg">
<g filter="url(#filter0_d)">
<circle cx="26.6474" cy="24.6469" r="13.2353" fill="white"/>
<circle cx="26.6474" cy="24.6469" r="12.7059" stroke="white" stroke-width="1.05882"/>
</g>
<g clip-path="url(#clip0)">
<path d="M26.6468 17.7646C24.1169 17.7646 22.0586 19.823 22.0586 22.3529C22.0586 23.1124 22.2485 23.8654 22.6095 24.5333L26.3959 31.3815C26.4463 31.4728 26.5424 31.5294 26.6468 31.5294C26.7513 31.5294 26.8473 31.4728 26.8977 31.3815L30.6856 24.531C31.0452 23.8654 31.2351 23.1123 31.2351 22.3529C31.2351 19.823 29.1767 17.7646 26.6468 17.7646ZM26.6468 24.647C25.3819 24.647 24.3527 23.6178 24.3527 22.3529C24.3527 21.0879 25.3819 20.0588 26.6468 20.0588C27.9118 20.0588 28.9409 21.0879 28.9409 22.3529C28.9409 23.6178 27.9118 24.647 26.6468 24.647Z" fill="url(#paint0_linear)"/>
</g>
<defs>
<filter id="filter0_d" x="0.706228" y="0.823387" width="51.8824" height="51.8824" filterUnits="userSpaceOnUse" color-interpolation-filters="sRGB">
<feFlood flood-opacity="0" result="BackgroundImageFix"/>
<feColorMatrix in="SourceAlpha" type="matrix" values="0 0 0 0 0 0 0 0 0 0 0 0 0 0 0 0 0 0 127 0"/>
<feOffset dy="2.11765"/>
<feGaussianBlur stdDeviation="6.35294"/>
<feColorMatrix type="matrix" values="0 0 0 0 0.616667 0 0 0 0 0.616667 0 0 0 0 0.616667 0 0 0 0.25 0"/>
<feBlend mode="normal" in2="BackgroundImageFix" result="effect1_dropShadow"/>
<feBlend mode="normal" in="SourceGraphic" in2="effect1_dropShadow" result="shape"/>
</filter>
<linearGradient id="paint0_linear" x1="22.656" y1="18.228" x2="33.5952" y2="20.0165" gradientUnits="userSpaceOnUse">
<stop stop-color="#FE4E73"/>
<stop offset="1" stop-color="#FE765B"/>
</linearGradient>
<clipPath id="clip0">
<rect width="13.7647" height="13.7647" fill="white" transform="translate(19.7656 17.7646)"/>
</clipPath>
</defs>
</svg>
