<svg width="95" height="94" viewBox="0 0 95 94" fill="none" xmlns="http://www.w3.org/2000/svg">
<g filter="url(#filter0_d)">
<ellipse cx="46.7333" cy="46" rx="28" ry="28" fill="white"/>
</g>
<g clip-path="url(#clip0)">
<path d="M60.8406 40.3293C60.7721 38.8323 60.5343 37.8099 60.1867 36.9155C59.8337 35.977 59.28 35.127 58.5645 34.4244C57.8622 33.709 57.0119 33.1551 56.0735 32.8018C55.1788 32.4544 54.1567 32.2169 52.6596 32.1488C51.1598 32.0802 50.6806 32.0638 46.8612 32.0638C43.0418 32.0638 42.5626 32.0802 41.0627 32.1484C39.5657 32.2169 38.5436 32.4546 37.6489 32.8023C36.7105 33.1553 35.8604 33.709 35.1578 34.4244C34.4424 35.1268 33.8885 35.9768 33.5353 36.9153C33.1878 37.8099 32.9503 38.8323 32.8822 40.3291C32.8136 41.8292 32.7973 42.3081 32.7973 46.1276C32.7973 49.9472 32.8136 50.4264 32.8822 51.9262C32.9505 53.4231 33.1883 54.4454 33.5359 55.3401C33.8889 56.2783 34.4426 57.1285 35.1581 57.8309C35.8604 58.5464 36.7107 59.1 37.6491 59.4531C38.5436 59.8009 39.5659 60.0385 41.063 60.1069C42.563 60.1754 43.042 60.1915 46.8614 60.1915C50.6808 60.1915 51.16 60.1754 52.6599 60.1069C54.1569 60.0385 55.179 59.8009 56.0737 59.4531C57.9628 58.7226 59.4562 57.2292 60.1867 55.3401C60.5346 54.4454 60.7721 53.4231 60.8406 51.9262C60.9088 50.4262 60.9251 49.9472 60.9251 46.1278C60.9251 42.3081 60.9088 41.8292 60.8406 40.3293ZM58.309 51.811C58.2465 53.1823 58.0173 53.9269 57.8248 54.4224C57.3516 55.6491 56.3823 56.6184 55.1556 57.0916C54.6601 57.2841 53.9155 57.5133 52.5442 57.5758C51.0615 57.6436 50.6167 57.6577 46.8612 57.6577C43.1055 57.6577 42.6609 57.6436 41.178 57.5758C39.8069 57.5133 39.0623 57.2841 38.5665 57.0916C37.9558 56.8661 37.4032 56.5066 36.9495 56.0394C36.4824 55.5858 36.1229 55.0334 35.8974 54.4224C35.7049 53.9269 35.4757 53.1823 35.4132 51.811C35.3456 50.3281 35.3312 49.8833 35.3312 46.128C35.3312 42.3725 35.3456 41.9279 35.4132 40.4448C35.4759 39.0735 35.7049 38.3288 35.8974 37.8333C36.1229 37.2224 36.4826 36.6698 36.9495 36.2161C37.4032 35.7489 37.9558 35.3895 38.5667 35.1641C39.0623 34.9714 39.8069 34.7425 41.1782 34.6798C42.6611 34.6122 43.1059 34.5978 46.8612 34.5978H46.861C50.6162 34.5978 51.0611 34.6122 52.5442 34.68C53.9155 34.7425 54.6599 34.9717 55.1556 35.1641C55.7664 35.3897 56.319 35.7491 56.7726 36.2161C57.2398 36.6698 57.5993 37.2224 57.8246 37.8333C58.0173 38.3288 58.2465 39.0735 58.309 40.4448C58.3766 41.9277 58.3909 42.3725 58.3909 46.1278C58.3909 49.8833 58.3768 50.3279 58.309 51.811Z" fill="url(#paint0_linear)"/>
<path d="M46.861 38.9057C42.8724 38.9057 39.6391 42.1393 39.6391 46.1278C39.6391 50.1163 42.8724 53.3497 46.861 53.3497C50.8497 53.3497 54.0831 50.1163 54.0831 46.1278C54.0831 42.1393 50.8497 38.9057 46.861 38.9057ZM46.861 50.8157C44.2721 50.8155 42.1731 48.7167 42.1733 46.1276C42.1733 43.5387 44.2721 41.4397 46.8612 41.4397C49.4503 41.4399 51.5491 43.5387 51.5491 46.1276C51.5491 48.7167 49.4501 50.8157 46.861 50.8157Z" fill="url(#paint1_linear)"/>
<path d="M56.0561 38.6205C56.0561 39.5525 55.3005 40.3081 54.3685 40.3081C53.4363 40.3081 52.6807 39.5525 52.6807 38.6205C52.6807 37.6883 53.4363 36.9327 54.3685 36.9327C55.3005 36.9327 56.0561 37.6883 56.0561 38.6205Z" fill="url(#paint2_linear)"/>
</g>
<defs>
<filter id="filter0_d" x="0.813338" y="0.0800006" width="93.3333" height="93.3333" filterUnits="userSpaceOnUse" color-interpolation-filters="sRGB">
<feFlood flood-opacity="0" result="BackgroundImageFix"/>
<feColorMatrix in="SourceAlpha" type="matrix" values="0 0 0 0 0 0 0 0 0 0 0 0 0 0 0 0 0 0 127 0"/>
<feOffset dx="0.746667" dy="0.746667"/>
<feGaussianBlur stdDeviation="9.33333"/>
<feColorMatrix type="matrix" values="0 0 0 0 0.85 0 0 0 0 0.85 0 0 0 0 0.85 0 0 0 0.25 0"/>
<feBlend mode="normal" in2="BackgroundImageFix" result="effect1_dropShadow"/>
<feBlend mode="normal" in="SourceGraphic" in2="effect1_dropShadow" result="shape"/>
</filter>
<linearGradient id="paint0_linear" x1="35.1577" y1="57.831" x2="58.5647" y2="34.4241" gradientUnits="userSpaceOnUse">
<stop stop-color="#FFD600"/>
<stop offset="0.5" stop-color="#FF0100"/>
<stop offset="1" stop-color="#D800B9"/>
</linearGradient>
<linearGradient id="paint1_linear" x1="41.7544" y1="51.2344" x2="51.9678" y2="41.021" gradientUnits="userSpaceOnUse">
<stop stop-color="#FF6400"/>
<stop offset="0.5" stop-color="#FF0100"/>
<stop offset="1" stop-color="#FD0056"/>
</linearGradient>
<linearGradient id="paint2_linear" x1="53.1751" y1="39.8137" x2="55.5618" y2="37.4271" gradientUnits="userSpaceOnUse">
<stop stop-color="#F30072"/>
<stop offset="1" stop-color="#E50097"/>
</linearGradient>
<clipPath id="clip0">
<rect width="28.1279" height="28.1279" fill="white" transform="translate(32.7973 32.0638)"/>
</clipPath>
</defs>
</svg>
