<svg width="349" height="76" viewBox="0 0 349 76" fill="none" xmlns="http://www.w3.org/2000/svg">
<rect x="168.897" y="13" width="60.3183" height="63" fill="#FF4545"/>
<path d="M1.98 44.88C1.98 40.72 2.88 37.02 4.68 33.78C6.48 30.5 8.98 27.96 12.18 26.16C15.42 24.32 19.08 23.4 23.16 23.4C28.16 23.4 32.44 24.72 36 27.36C39.56 30 41.94 33.6 43.14 38.16H31.86C31.02 36.4 29.82 35.06 28.26 34.14C26.74 33.22 25 32.76 23.04 32.76C19.88 32.76 17.32 33.86 15.36 36.06C13.4 38.26 12.42 41.2 12.42 44.88C12.42 48.56 13.4 51.5 15.36 53.7C17.32 55.9 19.88 57 23.04 57C25 57 26.74 56.54 28.26 55.62C29.82 54.7 31.02 53.36 31.86 51.6H43.14C41.94 56.16 39.56 59.76 36 62.4C32.44 65 28.16 66.3 23.16 66.3C19.08 66.3 15.42 65.4 12.18 63.6C8.98 61.76 6.48 59.22 4.68 55.98C2.88 52.74 1.98 49.04 1.98 44.88ZM69.3431 66.42C65.3831 66.42 61.7431 65.5 58.4231 63.66C55.1431 61.82 52.5231 59.26 50.5631 55.98C48.6431 52.66 47.6831 48.94 47.6831 44.82C47.6831 40.7 48.6431 37 50.5631 33.72C52.5231 30.44 55.1431 27.88 58.4231 26.04C61.7431 24.2 65.3831 23.28 69.3431 23.28C73.3031 23.28 76.9231 24.2 80.2031 26.04C83.5231 27.88 86.1231 30.44 88.0031 33.72C89.9231 37 90.8831 40.7 90.8831 44.82C90.8831 48.94 89.9231 52.66 88.0031 55.98C86.0831 59.26 83.4831 61.82 80.2031 63.66C76.9231 65.5 73.3031 66.42 69.3431 66.42ZM69.3431 57.06C72.7031 57.06 75.3831 55.94 77.3831 53.7C79.4231 51.46 80.4431 48.5 80.4431 44.82C80.4431 41.1 79.4231 38.14 77.3831 35.94C75.3831 33.7 72.7031 32.58 69.3431 32.58C65.9431 32.58 63.2231 33.68 61.1831 35.88C59.1831 38.08 58.1831 41.06 58.1831 44.82C58.1831 48.54 59.1831 51.52 61.1831 53.76C63.2231 55.96 65.9431 57.06 69.3431 57.06ZM118.071 66L109.311 50.1H106.851V66H96.5911V23.88H113.811C117.131 23.88 119.951 24.46 122.271 25.62C124.631 26.78 126.391 28.38 127.551 30.42C128.711 32.42 129.291 34.66 129.291 37.14C129.291 39.94 128.491 42.44 126.891 44.64C125.331 46.84 123.011 48.4 119.931 49.32L129.651 66H118.071ZM106.851 42.84H113.211C115.091 42.84 116.491 42.38 117.411 41.46C118.371 40.54 118.851 39.24 118.851 37.56C118.851 35.96 118.371 34.7 117.411 33.78C116.491 32.86 115.091 32.4 113.211 32.4H106.851V42.84ZM145.992 32.1V40.62H159.732V48.54H145.992V57.78H161.532V66H135.732V23.88H161.532V32.1H145.992ZM246.773 58.08H260.213V66H236.513V23.88H246.773V58.08ZM291.327 58.56H275.607L273.087 66H262.347L277.587 23.88H289.467L304.707 66H293.847L291.327 58.56ZM288.687 50.64L283.467 35.22L278.307 50.64H288.687ZM334.845 44.4C337.285 44.92 339.245 46.14 340.725 48.06C342.205 49.94 342.945 52.1 342.945 54.54C342.945 58.06 341.705 60.86 339.225 62.94C336.785 64.98 333.365 66 328.965 66H309.345V23.88H328.305C332.585 23.88 335.925 24.86 338.325 26.82C340.765 28.78 341.985 31.44 341.985 34.8C341.985 37.28 341.325 39.34 340.005 40.98C338.725 42.62 337.005 43.76 334.845 44.4ZM319.605 40.92H326.325C328.005 40.92 329.285 40.56 330.165 39.84C331.085 39.08 331.545 37.98 331.545 36.54C331.545 35.1 331.085 34 330.165 33.24C329.285 32.48 328.005 32.1 326.325 32.1H319.605V40.92ZM327.165 57.72C328.885 57.72 330.205 57.34 331.125 56.58C332.085 55.78 332.565 54.64 332.565 53.16C332.565 51.68 332.065 50.52 331.065 49.68C330.105 48.84 328.765 48.42 327.045 48.42H319.605V57.72H327.165Z" fill="black"/>
<path d="M206.708 66L198.128 53.1L190.568 66H178.928L192.428 44.58L178.628 23.88H190.568L199.028 36.6L206.468 23.88H218.108L204.728 45.12L218.648 66H206.708Z" fill="white"/>
</svg>
