<svg width="94" height="94" viewBox="0 0 94 94" fill="none" xmlns="http://www.w3.org/2000/svg">
<g filter="url(#filter0_d)">
<ellipse cx="46" cy="46" rx="28" ry="28" fill="white"/>
</g>
<g clip-path="url(#clip0)">
<path d="M61.4722 38.5996C61.1032 37.2285 60.0221 36.1476 58.6512 35.7784C56.1465 35.093 46.1275 35.093 46.1275 35.093C46.1275 35.093 36.1089 35.093 33.6041 35.7523C32.2596 36.1213 31.1521 37.2287 30.7832 38.5996C30.1241 41.1041 30.1241 46.2982 30.1241 46.2982C30.1241 46.2982 30.1241 51.5184 30.7832 53.9968C31.1524 55.3677 32.2332 56.4488 33.6044 56.818C36.1352 57.5034 46.1278 57.5034 46.1278 57.5034C46.1278 57.5034 56.1465 57.5034 58.6512 56.8441C60.0224 56.4751 61.1032 55.3941 61.4724 54.0231C62.1315 51.5184 62.1315 46.3246 62.1315 46.3246C62.1315 46.3246 62.1579 41.1041 61.4722 38.5996Z" fill="#FF0000"/>
<path d="M42.9376 48.9108C42.9376 49.8829 43.9894 50.4909 44.8318 50.0057L49.3678 47.3932C50.2117 46.9072 50.2117 45.6894 49.3678 45.2033L44.8318 42.5908C43.9894 42.1056 42.9376 42.7136 42.9376 43.6857V48.9108Z" fill="white"/>
</g>
<defs>
<filter id="filter0_d" x="0.0800006" y="0.0800006" width="93.3333" height="93.3333" filterUnits="userSpaceOnUse" color-interpolation-filters="sRGB">
<feFlood flood-opacity="0" result="BackgroundImageFix"/>
<feColorMatrix in="SourceAlpha" type="matrix" values="0 0 0 0 0 0 0 0 0 0 0 0 0 0 0 0 0 0 127 0"/>
<feOffset dx="0.746667" dy="0.746667"/>
<feGaussianBlur stdDeviation="9.33333"/>
<feColorMatrix type="matrix" values="0 0 0 0 0.85 0 0 0 0 0.85 0 0 0 0 0.85 0 0 0 0.25 0"/>
<feBlend mode="normal" in2="BackgroundImageFix" result="effect1_dropShadow"/>
<feBlend mode="normal" in="SourceGraphic" in2="effect1_dropShadow" result="shape"/>
</filter>
<clipPath id="clip0">
<rect width="32.0076" height="22.6187" fill="white" transform="translate(30.1241 34.9738)"/>
</clipPath>
</defs>
</svg>
